<svg width="1357" height="666" viewBox="0 0 1357 666" fill="none" xmlns="http://www.w3.org/2000/svg">
<ellipse cx="736" cy="463.5" rx="5" ry="4.5" fill="#799E62"/>
<ellipse cx="807" cy="346.5" rx="5" ry="4.5" fill="#54AB2B"/>
<ellipse cx="766" cy="582.5" rx="5" ry="4.5" fill="#447692"/>
<ellipse cx="1093" cy="547.5" rx="5" ry="4.5" fill="#54AB2B"/>
<ellipse cx="972" cy="529.5" rx="5" ry="4.5" fill="#B58DDE"/>
<ellipse cx="1065" cy="435.5" rx="5" ry="4.5" fill="#2F88A5"/>
<ellipse cx="954" cy="426.5" rx="5" ry="4.5" fill="#10D824"/>
<ellipse cx="168" cy="591.5" rx="5" ry="4.5" fill="#ED0505"/>
<ellipse cx="483" cy="556.5" rx="5" ry="4.5" fill="#799E62"/>
<ellipse cx="322" cy="661.5" rx="5" ry="4.5" fill="#B58DDE"/>
<ellipse cx="827" cy="65.5" rx="5" ry="4.5" fill="#2F88A5"/>
<ellipse cx="716" cy="56.5" rx="5" ry="4.5" fill="#10D824"/>
<ellipse cx="657" cy="260.5" rx="5" ry="4.5" fill="#799E62"/>
<ellipse cx="686" cy="83.5" rx="5" ry="4.5" fill="#B58DDE"/>
<ellipse cx="495.278" cy="213.665" rx="5" ry="4.5" transform="rotate(-176.326 495.278 213.665)" fill="#2F88A5"/>
<ellipse cx="529.278" cy="139.811" rx="5" ry="4.5" transform="rotate(-176.326 529.278 139.811)" fill="#10D824"/>
<ellipse cx="595.896" cy="30.8112" rx="5" ry="4.5" transform="rotate(-176.326 595.896 30.8112)" fill="#799E62"/>
<ellipse cx="470" cy="30.5" rx="5" ry="4.5" fill="#10D824"/>
<ellipse cx="440" cy="57.5" rx="5" ry="4.5" fill="#B58DDE"/>
<ellipse cx="283.278" cy="113.811" rx="5" ry="4.5" transform="rotate(-176.326 283.278 113.811)" fill="#10D824"/>
<ellipse cx="349.896" cy="4.81116" rx="5" ry="4.5" transform="rotate(-176.326 349.896 4.81116)" fill="#799E62"/>
<ellipse cx="637.142" cy="168.738" rx="5" ry="4.5" transform="rotate(-176.326 637.142 168.738)" fill="#B58DDE"/>
<ellipse cx="1011.72" cy="235.695" rx="5" ry="4.5" transform="rotate(143.446 1011.72 235.695)" fill="#2F88A5"/>
<ellipse cx="1106.25" cy="176.815" rx="5" ry="4.5" transform="rotate(143.446 1106.25 176.815)" fill="#10D824"/>
<ellipse cx="993.697" cy="58.5927" rx="5" ry="4.5" transform="rotate(143.446 993.697 58.5927)" fill="#799E62"/>
<ellipse cx="1114.26" cy="137.259" rx="5" ry="4.5" transform="rotate(143.446 1114.26 137.259)" fill="#B58DDE"/>
<ellipse cx="647" cy="623.5" rx="5" ry="4.5" fill="#10D824"/>
<ellipse cx="367" cy="571.5" rx="5" ry="4.5" fill="#447692"/>
<ellipse cx="92" cy="560.5" rx="5" ry="4.5" fill="#B58DDE"/>
<ellipse cx="1340" cy="551.5" rx="5" ry="4.5" fill="#799E62"/>
<ellipse cx="1249" cy="652.5" rx="5" ry="4.5" fill="#ED0505"/>
<ellipse cx="1025" cy="309.5" rx="5" ry="4.5" fill="#447692"/>
<ellipse cx="904" cy="291.5" rx="5" ry="4.5" fill="#ED0505"/>
<ellipse cx="1281" cy="391.5" rx="5" ry="4.5" fill="#799E62"/>
<ellipse cx="1352" cy="274.5" rx="5" ry="4.5" fill="#54AB2B"/>
<ellipse cx="1231" cy="256.5" rx="5" ry="4.5" fill="#B58DDE"/>
<ellipse cx="367" cy="476.834" rx="5" ry="4.5" fill="#799E62"/>
<ellipse cx="438" cy="359.834" rx="5" ry="4.5" fill="#54AB2B"/>
<ellipse cx="696" cy="448.834" rx="5" ry="4.5" fill="#2F88A5"/>
<ellipse cx="585" cy="439.834" rx="5" ry="4.5" fill="#10D824"/>
<ellipse cx="367" cy="231.834" rx="5" ry="4.5" fill="#799E62"/>
<ellipse cx="288" cy="273.834" rx="5" ry="4.5" fill="#799E62"/>
<ellipse cx="126.278" cy="226.999" rx="5" ry="4.5" transform="rotate(-176.326 126.278 226.999)" fill="#2F88A5"/>
<ellipse cx="160.278" cy="153.145" rx="5" ry="4.5" transform="rotate(-176.326 160.278 153.145)" fill="#10D824"/>
<ellipse cx="268.142" cy="182.072" rx="5" ry="4.5" transform="rotate(-176.326 268.142 182.072)" fill="#B58DDE"/>
<ellipse cx="146.136" cy="73.5733" rx="5" ry="4.5" fill="#799E62"/>
<ellipse cx="67.1363" cy="115.573" rx="5" ry="4.5" fill="#799E62"/>
<ellipse cx="47.2781" cy="23.8112" rx="5" ry="4.5" transform="rotate(-176.326 47.2781 23.8112)" fill="#B58DDE"/>
<ellipse cx="737.247" cy="190.149" rx="5" ry="4.5" transform="rotate(143.446 737.247 190.149)" fill="#10D824"/>
<ellipse cx="745.265" cy="150.593" rx="5" ry="4.5" transform="rotate(143.446 745.265 150.593)" fill="#B58DDE"/>
<ellipse cx="858.278" cy="161.738" rx="5" ry="4.5" transform="rotate(-176.326 858.278 161.738)" fill="#B58DDE"/>
<ellipse cx="958.383" cy="183.149" rx="5" ry="4.5" transform="rotate(143.446 958.383 183.149)" fill="#10D824"/>
<ellipse cx="966.401" cy="143.593" rx="5" ry="4.5" transform="rotate(143.446 966.401 143.593)" fill="#B58DDE"/>
<ellipse cx="656" cy="322.834" rx="5" ry="4.5" fill="#447692"/>
<ellipse cx="535" cy="304.834" rx="5" ry="4.5" fill="#ED0505"/>
<ellipse cx="912" cy="404.834" rx="5" ry="4.5" fill="#799E62"/>
<ellipse cx="862" cy="269.834" rx="5" ry="4.5" fill="#B58DDE"/>
<ellipse cx="1192.72" cy="51.4724" rx="5" ry="4.5" transform="rotate(143.446 1192.72 51.4724)" fill="#2F88A5"/>
<ellipse cx="1085" cy="107.278" rx="5" ry="4.5" fill="#ED0505"/>
<ellipse cx="1043" cy="85.6117" rx="5" ry="4.5" fill="#B58DDE"/>
<ellipse cx="430" cy="493.166" rx="5" ry="4.5" fill="#799E62"/>
<ellipse cx="501" cy="376.166" rx="5" ry="4.5" fill="#54AB2B"/>
<ellipse cx="759" cy="465.166" rx="5" ry="4.5" fill="#2F88A5"/>
<ellipse cx="648" cy="456.166" rx="5" ry="4.5" fill="#10D824"/>
<ellipse cx="719" cy="339.166" rx="5" ry="4.5" fill="#447692"/>
<ellipse cx="61" cy="506.5" rx="5" ry="4.5" fill="#799E62"/>
<ellipse cx="132" cy="389.5" rx="5" ry="4.5" fill="#54AB2B"/>
<ellipse cx="279" cy="469.5" rx="5" ry="4.5" fill="#10D824"/>
<ellipse cx="350" cy="352.5" rx="5" ry="4.5" fill="#447692"/>
<ellipse cx="229" cy="334.5" rx="5" ry="4.5" fill="#ED0505"/>
<ellipse cx="187" cy="314.5" rx="5" ry="4.5" fill="#799E62"/>
<ellipse cx="108" cy="356.5" rx="5" ry="4.5" fill="#799E62"/>
<ellipse cx="88.1417" cy="264.738" rx="5" ry="4.5" transform="rotate(-176.326 88.1417 264.738)" fill="#B58DDE"/>
<ellipse cx="48.9999" cy="417.166" rx="5" ry="4.5" fill="#ED0505"/>
<ellipse cx="606" cy="434.5" rx="5" ry="4.5" fill="#799E62"/>
</svg>
